<svg t="1776094316232" class="icon" viewBox="0 0 1024 1024" version="1.1" xmlns="http://www.w3.org/2000/svg" p-id="8199" width="200" height="200"><path d="M899.19799 415.379887H537.410719v153.602474h361.886241V415.379887h-0.09897z m-30.680907 122.921568h-300.375972v-31.522158h28.503551v-30.680906H568.091625v-29.196347h300.375973v91.399411zM537.410719 600.405548v152.117914h486.193398v-152.810709H537.410719v0.692795z m455.463006 121.387522H568.091625v-90.706616h424.7821v90.706616zM537.410719 875.395544h423.29754v-92.092205H537.410719V875.395544z m30.680906-61.411298h361.886242v30.680906H568.091625v-30.680906z" fill="#1296db" p-id="8200"></path><path d="M750.098681 475.306625H836.302131v30.680907h-86.20345v-30.680907zM688.687382 475.306625h30.680907v30.680907h-30.680907v-30.680907zM627.276084 475.306625h30.680906v30.680907h-30.680906v-30.680907zM899.19799 660.381772h61.411298v30.680906h-61.411298v-30.680906zM837.786691 660.381772h30.680907v30.680906h-30.680907v-30.680906zM776.375393 660.381772h30.680906v30.680906h-30.680906v-30.680906zM714.914609 660.381772h30.680906v30.680906h-30.680906v-30.680906zM484.115015 148.604456H46.219301C20.932296 148.604456 0.395883 169.091384 0.395883 194.427874v635.094767c0 25.287005 20.486928 45.823419 45.823418 45.823418h437.895714c25.287005 0 45.823419-20.486928 45.823418-45.823418V194.477359c0.544339-25.385976-20.536413-45.872904-45.823418-45.872903zM265.09293 789.192094c-29.592229 0-53.691587-23.505533-53.691587-53.691587s23.505533-53.691587 53.691587-53.691586c29.592229 0 53.691587 23.505533 53.691587 53.691586 0 29.493259-24.099357 53.691587-53.691587 53.691587z m184.580293-204.473397H80.611608c-6.581549 0-11.480597-4.800077-11.480598-11.480597v-68.784613c0-6.581549 4.800077-11.480597 11.480598-11.480598h369.1111c6.581549 0 11.480597 4.800077 11.480597 11.480598v68.784613c0.494853 6.037211-4.899048 11.480597-11.530082 11.480597z m0-138.113565H80.611608c-6.581549 0-11.480597-4.800077-11.480598-11.480597V366.389407c0-6.581549 4.800077-11.480597 11.480598-11.480597h369.1111c6.581549 0 11.480597 4.800077 11.480597 11.480597v68.784613c0.494853 5.93824-4.899048 11.431112-11.530082 11.431112z m0-139.400183H80.611608c-6.581549 0-11.480597-4.800077-11.480598-11.480598v-68.784613c0-6.581549 4.800077-11.480597 11.480598-11.480597h369.1111c6.581549 0 11.480597 4.800077 11.480597 11.480597v68.784613c0.494853 6.086696-4.899048 11.480597-11.530082 11.480598z" fill="#1296db" p-id="8201"></path></svg>